# xmcd
#
# Track frame offsets: 
#        150
#        22913
#        48333
#        74615
#        106494
#        141708
#        172067
#        205463
#        227919
#        253014
#        276018
#        299773
#
# Disc length: 4447 seconds
#
# Revision: 0
# Processed by: cddbd v1.5.2PL0 Copyright (c) Steve Scherf et al.
# Submitted via: ExactAudioCopy v1.3
#
DISCID=c7115d0c
DTITLE=Chris O'Leary - 7 Minutes Late
DYEAR=2019
DGENRE=Contemporary Blues
TTITLE0=What The Devil Made Me Do
TTITLE1=Your Day Will Come
TTITLE2=One More Chance At Love
TTITLE3=Second Time Around
TTITLE4=She Ain't Coming Back
TTITLE5=Circus Just Left Town
TTITLE6=7 Minutes Late
TTITLE7=Unbelievable
TTITLE8=Bones
TTITLE9=Heartbreak Waiting To Happen
TTITLE10=Driving Me Crazy
TTITLE11=Daddy's Here
EXTD=
EXTT0=
EXTT1=
EXTT2=
EXTT3=
EXTT4=
EXTT5=
EXTT6=
EXTT7=
EXTT8=
EXTT9=
EXTT10=
EXTT11=
PLAYORDER=
